<?xml version="1.0" encoding="utf-8"?>
<!-- Generator: Adobe Illustrator 24.1.0, SVG Export Plug-In . SVG Version: 6.00 Build 0)  -->
<svg version="1.1" id="Layer_1" xmlns="http://www.w3.org/2000/svg" xmlns:xlink="http://www.w3.org/1999/xlink" x="0px" y="0px"
	 viewBox="0 0 1080 1080" style="enable-background:new 0 0 1080 1080;" xml:space="preserve">
<style type="text/css">
	.st0{fill:#6500C3;}
</style>
<path class="st0" d="M540.8,761.8c-48.6-7.3-94.1-27.3-130.5-58.9c-1.7-1.5-3.4-3.1-5-4.6c-3.4-3.1-6.6-6.3-9.8-9.6
	c-3.2-3.3-6.2-6.7-9.2-10.1c-2.9-3.4-5.9-6.8-8.6-10.4c-33.9-43.5-52.4-96.6-52.4-152.8c0-57.8,19.5-112.5,55.3-156.7
	c0.7-0.9,1.4-1.7,2.1-2.6c4.9-5.9,10-11.6,15.5-17c11.2-11.2,23.3-21,36.1-29.7c3.7-2.5,7.4-5,11.2-7.2c1.5-0.9,3.1-1.8,4.6-2.7
	c27.8-15.6,58.6-26.1,90.8-31c21.5-3.2,40.4-14.6,53.3-32.1c12.9-17.5,18.3-39,15-60.5s-14.7-40.5-32.1-53.4
	c-16.4-12.1-36.2-17.4-56.3-15.4v-0.1c-0.6,0.1-1.2,0.2-1.8,0.3c-0.8,0.1-1.6,0.1-2.4,0.2c-7.2,1.1-14.3,2.4-21.4,3.8
	c-79.9,15.4-153.5,53.9-212.2,112.6c-160.4,160.4-160.7,421.3-0.8,582l0,0l0.9,0.9c0,0,0.1,0.1,0.1,0.1l0.1,0.1l0,0
	c64.9,64.8,147.7,105.1,237.4,116.7v-0.5c20.1,2,40-3.3,56.3-15.4c17.5-12.9,28.9-31.9,32.1-53.4c3.2-21.5-2.1-43-15-60.5
	C581.2,776.4,562.3,765,540.8,761.8z"/>
<g>
	<path class="st0" d="M800.4,358.4c65.4,0,118.6-51.7,118.6-115.2c0-65.4-53.2-118.6-118.6-118.6c-63.5,0-115.2,53.2-115.2,118.6
		C685.2,306.7,736.9,358.4,800.4,358.4z"/>
	<path class="st0" d="M913.9,685.9c-10.9-37.9-41.2-83.1-123.5-83.1c-63.5,0-115.3,51.7-115.3,115.2c0,59.5,45,108.7,103.5,114.7
		v141.1l18-11.3C890.6,903.7,936.8,765.5,913.9,685.9z"/>
</g>
</svg>
